<svg width="34" height="27" viewBox="0 0 34 27" fill="none" xmlns="http://www.w3.org/2000/svg">
<rect width="34" height="27" fill="black"/>
<path d="M8.25568 8.54545H9.25284L12.6829 16.7812H12.766L16.196 8.54545H17.1932V18H16.3807V10.369H16.3068L13.1168 18H12.332L9.14205 10.369H9.06818V18H8.25568V8.54545ZM21.1472 8.54545L23.0538 11.7678H23.1277L25.0435 8.54545H27.301L24.4157 13.2727L27.3656 18H25.0666L23.1277 14.7731H23.0538L21.1149 18H18.8251L21.7843 13.2727L18.8805 8.54545H21.1472Z" fill="white"/>
<line x1="0.5" y1="-2.18557e-08" x2="0.5" y2="4" stroke="#7C7C7C"/>
<line x1="0.5" y1="-2.18557e-08" x2="0.5" y2="4" stroke="#7C7C7C"/>
<line y1="0.5" x2="4" y2="0.5" stroke="#7C7C7C"/>
<line y1="0.5" x2="4" y2="0.5" stroke="#7C7C7C"/>
<line x1="-4.37114e-08" y1="26.5" x2="4" y2="26.5" stroke="#7C7C7C"/>
<line x1="-4.37114e-08" y1="26.5" x2="4" y2="26.5" stroke="#7C7C7C"/>
<line x1="0.5" y1="27" x2="0.5" y2="23" stroke="#7C7C7C"/>
<line x1="0.5" y1="27" x2="0.5" y2="23" stroke="#7C7C7C"/>
<line y1="-0.5" x2="4" y2="-0.5" transform="matrix(-4.37114e-08 1 1 4.37114e-08 34 0)" stroke="#7C7C7C"/>
<line y1="-0.5" x2="4" y2="-0.5" transform="matrix(-4.37114e-08 1 1 4.37114e-08 34 0)" stroke="#7C7C7C"/>
<line y1="-0.5" x2="4" y2="-0.5" transform="matrix(-1 0 0 1 34 1)" stroke="#7C7C7C"/>
<line y1="-0.5" x2="4" y2="-0.5" transform="matrix(-1 0 0 1 34 1)" stroke="#7C7C7C"/>
<line y1="-0.5" x2="4" y2="-0.5" transform="matrix(-1 -6.31387e-08 -1.42062e-07 1 34 27)" stroke="#7C7C7C"/>
<line y1="-0.5" x2="4" y2="-0.5" transform="matrix(-1 -6.31387e-08 -1.42062e-07 1 34 27)" stroke="#7C7C7C"/>
<line y1="-0.5" x2="4" y2="-0.5" transform="matrix(4.37114e-08 -1 -1 -4.37114e-08 33 27)" stroke="#7C7C7C"/>
<line y1="-0.5" x2="4" y2="-0.5" transform="matrix(4.37114e-08 -1 -1 -4.37114e-08 33 27)" stroke="#7C7C7C"/>
</svg>
