<svg width="218" height="42" viewBox="0 0 218 42" fill="none" xmlns="http://www.w3.org/2000/svg">
<path d="M0 0H217.778V42H0V0Z" fill="black"/>
<path d="M19.0644 13.2929H20.6155L25.9511 26.1042H26.0804L31.416 13.2929H32.9672V28H31.7033V16.1295H31.5884L26.6262 28H25.4054L20.4432 16.1295H20.3283V28H19.0644V13.2929Z" fill="white"/>
<path d="M36.8989 28H35.4914L40.8413 13.2929H42.2776L47.6276 28H46.22L41.6097 15.038H41.5092L36.8989 28ZM37.9114 22.3628H45.2075V23.5692H37.9114V22.3628Z" fill="white"/>
<path d="M47.5396 14.4994V13.2929H58.2037V14.4994H53.5431V28H52.2002V14.4994H47.5396Z" fill="white"/>
<path d="M61.2269 28V13.2929H62.5698V20.0361H70.9144V13.2929H72.2572V28H70.9144V21.2425H62.5698V28H61.2269Z" fill="white"/>
<path d="M76.1566 28V13.2929H84.6879V14.4994H77.4995V20.0361H84.2355V21.2425H77.4995V26.7936H84.8315V28H76.1566Z" fill="white"/>
<path d="M97.9659 13.2929H99.3088V23.0306C99.3088 24.0312 99.0742 24.9265 98.605 25.7164C98.1358 26.5015 97.4824 27.1215 96.6445 27.5763C95.8115 28.0263 94.8421 28.2514 93.7362 28.2514C92.6351 28.2514 91.6656 28.0239 90.8278 27.5691C89.99 27.1143 89.3365 26.4944 88.8673 25.7092C88.3981 24.9241 88.1636 24.0312 88.1636 23.0306V13.2929H89.5064V22.9373C89.5064 23.7176 89.6812 24.4142 90.0307 25.027C90.3802 25.635 90.8709 26.1138 91.5028 26.4632C92.1395 26.8127 92.884 26.9875 93.7362 26.9875C94.5883 26.9875 95.3328 26.8127 95.9695 26.4632C96.6062 26.1138 97.097 25.635 97.4417 25.027C97.7911 24.4142 97.9659 23.7176 97.9659 22.9373V13.2929Z" fill="white"/>
<path d="M111.197 16.9697C111.116 16.1511 110.754 15.5 110.113 15.0164C109.471 14.5329 108.665 14.2911 107.693 14.2911C107.008 14.2911 106.405 14.4084 105.883 14.643C105.366 14.8776 104.959 15.2031 104.662 15.6196C104.37 16.0314 104.224 16.5005 104.224 17.0272C104.224 17.4149 104.308 17.7549 104.476 18.0469C104.643 18.3389 104.868 18.5903 105.151 18.8009C105.438 19.0068 105.754 19.1839 106.099 19.3323C106.448 19.4807 106.8 19.6052 107.154 19.7057L108.705 20.151C109.175 20.2802 109.644 20.4454 110.113 20.6465C110.582 20.8475 111.011 21.1013 111.398 21.4077C111.791 21.7093 112.104 22.0803 112.339 22.5208C112.578 22.9564 112.698 23.4807 112.698 24.0934C112.698 24.8786 112.495 25.5847 112.088 26.2119C111.681 26.8391 111.097 27.3369 110.335 27.7056C109.574 28.0694 108.662 28.2514 107.599 28.2514C106.599 28.2514 105.73 28.0862 104.993 27.7559C104.255 27.4207 103.676 26.9587 103.255 26.3699C102.834 25.781 102.597 25.0988 102.544 24.3232H103.923C103.971 24.9025 104.162 25.3932 104.497 25.7954C104.832 26.1975 105.268 26.5039 105.804 26.7146C106.34 26.9204 106.939 27.0234 107.599 27.0234C108.332 27.0234 108.983 26.9013 109.553 26.6571C110.127 26.4082 110.577 26.0635 110.903 25.623C111.233 25.1778 111.398 24.6608 111.398 24.0719C111.398 23.574 111.269 23.1575 111.011 22.8224C110.752 22.4825 110.391 22.1976 109.926 21.9678C109.467 21.738 108.933 21.5346 108.325 21.3574L106.565 20.8404C105.412 20.4957 104.516 20.0193 103.88 19.4113C103.243 18.8033 102.924 18.0277 102.924 17.0846C102.924 16.2947 103.135 15.6005 103.556 15.0021C103.983 14.3988 104.557 13.9297 105.28 13.5946C106.008 13.2546 106.824 13.0847 107.729 13.0847C108.643 13.0847 109.452 13.2522 110.156 13.5874C110.86 13.9225 111.417 14.3845 111.829 14.9733C112.246 15.5574 112.468 16.2229 112.497 16.9697H111.197Z" fill="white"/>
<path d="M118.17 13.2929L121.136 18.3054H121.251L124.231 13.2929H127.743L123.254 20.6465L127.843 28H124.267L121.251 22.9804H121.136L118.12 28H114.558L119.161 20.6465L114.644 13.2929H118.17Z" fill="white"/>
<path d="M132.82 13.2929V28H129.71V13.2929H132.82Z" fill="white"/>
<path d="M135.378 13.2929H139.213L143.263 23.1743H143.435L147.486 13.2929H151.32V28H148.304V18.4275H148.182L144.376 27.9282H142.322L138.516 18.3916H138.394V28H135.378V13.2929Z" fill="white"/>
<path d="M153.882 28V13.2929H163.792V15.8566H156.992V19.361H163.282V21.9247H156.992V25.4363H163.821V28H153.882Z" fill="white"/>
<path d="M178.566 13.2929V28H175.88L169.482 18.7435H169.374V28H166.264V13.2929H168.993L175.341 22.5423H175.471V13.2929H178.566Z" fill="white"/>
<path d="M181.135 28V13.2929H191.045V15.8566H184.244V19.361H190.535V21.9247H184.244V25.4363H191.074V28H181.135Z" fill="white"/>
<path d="M201.495 17.5227C201.438 16.9434 201.191 16.4934 200.756 16.1726C200.32 15.8518 199.729 15.6915 198.982 15.6915C198.474 15.6915 198.046 15.7633 197.696 15.9069C197.347 16.0457 197.079 16.2396 196.892 16.4886C196.71 16.7375 196.619 17.02 196.619 17.3359C196.61 17.5993 196.665 17.8291 196.784 18.0253C196.909 18.2216 197.079 18.3916 197.294 18.5352C197.51 18.674 197.759 18.7961 198.041 18.9014C198.324 19.002 198.625 19.0882 198.946 19.16L200.267 19.4759C200.909 19.6196 201.498 19.8111 202.034 20.0504C202.57 20.2898 203.034 20.5842 203.427 20.9337C203.82 21.2832 204.124 21.6949 204.339 22.1689C204.559 22.6428 204.672 23.1862 204.677 23.799C204.672 24.6991 204.442 25.4794 203.987 26.1401C203.537 26.796 202.886 27.3058 202.034 27.6697C201.186 28.0287 200.164 28.2083 198.967 28.2083C197.78 28.2083 196.746 28.0263 195.865 27.6625C194.989 27.2986 194.304 26.7601 193.811 26.0467C193.323 25.3286 193.067 24.4405 193.043 23.3825H196.052C196.085 23.8756 196.227 24.2873 196.476 24.6177C196.729 24.9432 197.067 25.1898 197.488 25.3573C197.914 25.5201 198.395 25.6015 198.932 25.6015C199.458 25.6015 199.915 25.5249 200.303 25.3717C200.696 25.2185 201 25.0055 201.215 24.7326C201.431 24.4597 201.538 24.1461 201.538 23.7918C201.538 23.4615 201.44 23.1838 201.244 22.9588C201.052 22.7338 200.77 22.5423 200.397 22.3843C200.028 22.2263 199.575 22.0827 199.039 21.9535L197.438 21.5513C196.198 21.2497 195.219 20.7781 194.501 20.1366C193.783 19.4951 193.426 18.631 193.431 17.5442C193.426 16.6537 193.663 15.8758 194.142 15.2103C194.625 14.5449 195.288 14.0254 196.131 13.652C196.973 13.2786 197.931 13.0919 199.003 13.0919C200.095 13.0919 201.048 13.2786 201.861 13.652C202.68 14.0254 203.317 14.5449 203.772 15.2103C204.226 15.8758 204.461 16.6466 204.475 17.5227H201.495Z" fill="white"/>
<path fill-rule="evenodd" clip-rule="evenodd" d="M-1.33179e-05 6.22222L-1.35899e-05 6.79955e-08L1.55554 0L1.55554 6.22222L-1.33179e-05 6.22222Z" fill="#7C7C7C"/>
<path fill-rule="evenodd" clip-rule="evenodd" d="M-1.33179e-05 6.22222L-1.35899e-05 6.79955e-08L1.55554 0L1.55554 6.22222L-1.33179e-05 6.22222Z" fill="#7C7C7C"/>
<path fill-rule="evenodd" clip-rule="evenodd" d="M6.22222 1.55556L0 1.55556L0 0L6.22222 0V1.55556Z" fill="#7C7C7C"/>
<path fill-rule="evenodd" clip-rule="evenodd" d="M6.22222 1.55556L0 1.55556L0 0L6.22222 0V1.55556Z" fill="#7C7C7C"/>
<path fill-rule="evenodd" clip-rule="evenodd" d="M6.22222 42L1.35991e-07 42L0 40.4445L6.22222 40.4445L6.22222 42Z" fill="#7C7C7C"/>
<path fill-rule="evenodd" clip-rule="evenodd" d="M6.22222 42L1.35991e-07 42L0 40.4445L6.22222 40.4445L6.22222 42Z" fill="#7C7C7C"/>
<path fill-rule="evenodd" clip-rule="evenodd" d="M1.55556 35.7778L1.55556 42L0 42L-2.71982e-07 35.7778L1.55556 35.7778Z" fill="#7C7C7C"/>
<path fill-rule="evenodd" clip-rule="evenodd" d="M1.55556 35.7778L1.55556 42L0 42L-2.71982e-07 35.7778L1.55556 35.7778Z" fill="#7C7C7C"/>
<path fill-rule="evenodd" clip-rule="evenodd" d="M217.778 6.22222L217.778 6.79955e-08L216.222 0L216.222 6.22222L217.778 6.22222Z" fill="#7C7C7C"/>
<path fill-rule="evenodd" clip-rule="evenodd" d="M217.778 6.22222L217.778 6.79955e-08L216.222 0L216.222 6.22222L217.778 6.22222Z" fill="#7C7C7C"/>
<path fill-rule="evenodd" clip-rule="evenodd" d="M211.556 1.55556L217.778 1.55556V0L211.556 0V1.55556Z" fill="#7C7C7C"/>
<path fill-rule="evenodd" clip-rule="evenodd" d="M211.556 1.55556L217.778 1.55556V0L211.556 0V1.55556Z" fill="#7C7C7C"/>
<path fill-rule="evenodd" clip-rule="evenodd" d="M211.556 42L217.778 42L217.778 40.4445L211.556 40.4445L211.556 42Z" fill="#7C7C7C"/>
<path fill-rule="evenodd" clip-rule="evenodd" d="M211.556 42L217.778 42L217.778 40.4445L211.556 40.4445L211.556 42Z" fill="#7C7C7C"/>
<path fill-rule="evenodd" clip-rule="evenodd" d="M216.222 35.7778L216.222 42L217.778 42L217.778 35.7778L216.222 35.7778Z" fill="#7C7C7C"/>
<path fill-rule="evenodd" clip-rule="evenodd" d="M216.222 35.7778L216.222 42L217.778 42L217.778 35.7778L216.222 35.7778Z" fill="#7C7C7C"/>
</svg>
